<svg xmlns="http://www.w3.org/2000/svg" width="450" height="337" viewBox="0 0 450 337">
<rect width="450" height="100%" rx="10" fill="#0d1117" stroke="#30363d"/>
<text x="25" y="35" fill="#e6edf3" font-size="17" font-family="Arial" font-weight="bold">Lenguajes más utilizados</text>
<text x="25" y="65" fill="#e6edf3" font-size="13" font-family="Arial">PHP</text>
<text x="425" y="65" fill="#8b949e" font-size="12" text-anchor="end" font-family="Arial">43.4%</text>
<rect x="25" y="75" width="400" height="8" rx="4" fill="#21262d"/>
<rect x="25" y="75" width="173.64" height="8" rx="4" fill="#777BB4"/>
<text x="25" y="107" fill="#e6edf3" font-size="13" font-family="Arial">SCSS</text>
<text x="425" y="107" fill="#8b949e" font-size="12" text-anchor="end" font-family="Arial">21.0%</text>
<rect x="25" y="117" width="400" height="8" rx="4" fill="#21262d"/>
<rect x="25" y="117" width="83.84" height="8" rx="4" fill="#8b949e"/>
<text x="25" y="149" fill="#e6edf3" font-size="13" font-family="Arial">Python</text>
<text x="425" y="149" fill="#8b949e" font-size="12" text-anchor="end" font-family="Arial">12.6%</text>
<rect x="25" y="159" width="400" height="8" rx="4" fill="#21262d"/>
<rect x="25" y="159" width="50.57" height="8" rx="4" fill="#3572A5"/>
<text x="25" y="191" fill="#e6edf3" font-size="13" font-family="Arial">HTML</text>
<text x="425" y="191" fill="#8b949e" font-size="12" text-anchor="end" font-family="Arial">9.1%</text>
<rect x="25" y="201" width="400" height="8" rx="4" fill="#21262d"/>
<rect x="25" y="201" width="36.49" height="8" rx="4" fill="#E34C26"/>
<text x="25" y="233" fill="#e6edf3" font-size="13" font-family="Arial">JavaScript</text>
<text x="425" y="233" fill="#8b949e" font-size="12" text-anchor="end" font-family="Arial">8.0%</text>
<rect x="25" y="243" width="400" height="8" rx="4" fill="#21262d"/>
<rect x="25" y="243" width="32.02" height="8" rx="4" fill="#F7DF1E"/>
<text x="25" y="275" fill="#e6edf3" font-size="13" font-family="Arial">Hack</text>
<text x="425" y="275" fill="#8b949e" font-size="12" text-anchor="end" font-family="Arial">3.0%</text>
<rect x="25" y="285" width="400" height="8" rx="4" fill="#21262d"/>
<rect x="25" y="285" width="12.01" height="8" rx="4" fill="#8b949e"/>
</svg>